<svg xmlns="http://www.w3.org/2000/svg" xmlns:xlink="http://www.w3.org/1999/xlink" version="1.1" width="256" height="256" viewBox="0 0 256 256" xml:space="preserve">

<defs>
</defs>
<g style="stroke: none; stroke-width: 0; stroke-dasharray: none; stroke-linecap: butt; stroke-linejoin: miter; stroke-miterlimit: 10; fill: none; fill-rule: nonzero; opacity: 1;" transform="translate(1.4065934065934016 1.4065934065934016) scale(2.81 2.81)" >
	<path d="M 69.75 45 c 0 4.624 -1.268 8.952 -3.476 12.655 C 61.956 64.898 54.045 69.75 45 69.75 c -13.669 0 -24.75 -11.081 -24.75 -24.75 S 31.331 20.25 45 20.25 S 69.75 31.331 69.75 45 z" style="stroke: none; stroke-width: 1; stroke-dasharray: none; stroke-linecap: butt; stroke-linejoin: miter; stroke-miterlimit: 10; fill: rgb(255,188,0); fill-rule: nonzero; opacity: 1;" transform=" matrix(1 0 0 1 0 0) " stroke-linecap="round" />
	<path d="M 45 70.75 c -14.199 0 -25.75 -11.552 -25.75 -25.75 c 0 -14.199 11.551 -25.75 25.75 -25.75 c 14.198 0 25.75 11.551 25.75 25.75 c 0 4.645 -1.251 9.197 -3.616 13.167 C 62.506 65.929 54.025 70.75 45 70.75 z M 45 21.25 c -13.096 0 -23.75 10.654 -23.75 23.75 S 31.904 68.75 45 68.75 c 8.324 0 16.147 -4.447 20.415 -11.606 c 2.182 -3.66 3.335 -7.859 3.335 -12.144 C 68.75 31.904 58.096 21.25 45 21.25 z" style="stroke: none; stroke-width: 1; stroke-dasharray: none; stroke-linecap: butt; stroke-linejoin: miter; stroke-miterlimit: 10; fill: rgb(0,0,0); fill-rule: nonzero; opacity: 1;" transform=" matrix(1 0 0 1 0 0) " stroke-linecap="round" />
	<path d="M 45 13.116 c -0.552 0 -1 -0.448 -1 -1 V 1 c 0 -0.552 0.448 -1 1 -1 s 1 0.448 1 1 v 11.116 C 46 12.668 45.552 13.116 45 13.116 z" style="stroke: none; stroke-width: 1; stroke-dasharray: none; stroke-linecap: butt; stroke-linejoin: miter; stroke-miterlimit: 10; fill: rgb(0,0,0); fill-rule: nonzero; opacity: 1;" transform=" matrix(1 0 0 1 0 0) " stroke-linecap="round" />
	<path d="M 45 90 c -0.552 0 -1 -0.447 -1 -1 V 77.884 c 0 -0.553 0.448 -1 1 -1 s 1 0.447 1 1 V 89 C 46 89.553 45.552 90 45 90 z" style="stroke: none; stroke-width: 1; stroke-dasharray: none; stroke-linecap: butt; stroke-linejoin: miter; stroke-miterlimit: 10; fill: rgb(0,0,0); fill-rule: nonzero; opacity: 1;" transform=" matrix(1 0 0 1 0 0) " stroke-linecap="round" />
	<path d="M 12.116 46 H 1 c -0.552 0 -1 -0.448 -1 -1 s 0.448 -1 1 -1 h 11.116 c 0.552 0 1 0.448 1 1 S 12.668 46 12.116 46 z" style="stroke: none; stroke-width: 1; stroke-dasharray: none; stroke-linecap: butt; stroke-linejoin: miter; stroke-miterlimit: 10; fill: rgb(0,0,0); fill-rule: nonzero; opacity: 1;" transform=" matrix(1 0 0 1 0 0) " stroke-linecap="round" />
	<path d="M 89 46 H 77.884 c -0.553 0 -1 -0.448 -1 -1 s 0.447 -1 1 -1 H 89 c 0.553 0 1 0.448 1 1 S 89.553 46 89 46 z" style="stroke: none; stroke-width: 1; stroke-dasharray: none; stroke-linecap: butt; stroke-linejoin: miter; stroke-miterlimit: 10; fill: rgb(0,0,0); fill-rule: nonzero; opacity: 1;" transform=" matrix(1 0 0 1 0 0) " stroke-linecap="round" />
	<path d="M 68.252 22.748 c -0.256 0 -0.512 -0.098 -0.707 -0.293 c -0.391 -0.391 -0.391 -1.023 0 -1.414 l 7.86 -7.86 c 0.391 -0.391 1.023 -0.391 1.414 0 s 0.391 1.023 0 1.414 l -7.86 7.86 C 68.764 22.65 68.508 22.748 68.252 22.748 z" style="stroke: none; stroke-width: 1; stroke-dasharray: none; stroke-linecap: butt; stroke-linejoin: miter; stroke-miterlimit: 10; fill: rgb(0,0,0); fill-rule: nonzero; opacity: 1;" transform=" matrix(1 0 0 1 0 0) " stroke-linecap="round" />
	<path d="M 13.887 77.112 c -0.256 0 -0.512 -0.098 -0.707 -0.293 c -0.391 -0.391 -0.391 -1.023 0 -1.414 l 7.86 -7.86 c 0.391 -0.391 1.023 -0.391 1.414 0 s 0.391 1.023 0 1.414 l -7.86 7.86 C 14.399 77.015 14.143 77.112 13.887 77.112 z" style="stroke: none; stroke-width: 1; stroke-dasharray: none; stroke-linecap: butt; stroke-linejoin: miter; stroke-miterlimit: 10; fill: rgb(0,0,0); fill-rule: nonzero; opacity: 1;" transform=" matrix(1 0 0 1 0 0) " stroke-linecap="round" />
	<path d="M 21.748 22.748 c -0.256 0 -0.512 -0.098 -0.707 -0.293 l -7.86 -7.86 c -0.391 -0.391 -0.391 -1.023 0 -1.414 s 1.023 -0.391 1.414 0 l 7.86 7.86 c 0.391 0.391 0.391 1.023 0 1.414 C 22.259 22.65 22.003 22.748 21.748 22.748 z" style="stroke: none; stroke-width: 1; stroke-dasharray: none; stroke-linecap: butt; stroke-linejoin: miter; stroke-miterlimit: 10; fill: rgb(0,0,0); fill-rule: nonzero; opacity: 1;" transform=" matrix(1 0 0 1 0 0) " stroke-linecap="round" />
	<path d="M 76.112 77.112 c -0.256 0 -0.512 -0.098 -0.707 -0.293 l -7.86 -7.86 c -0.391 -0.391 -0.391 -1.023 0 -1.414 s 1.023 -0.391 1.414 0 l 7.86 7.86 c 0.391 0.391 0.391 1.023 0 1.414 C 76.624 77.015 76.368 77.112 76.112 77.112 z" style="stroke: none; stroke-width: 1; stroke-dasharray: none; stroke-linecap: butt; stroke-linejoin: miter; stroke-miterlimit: 10; fill: rgb(0,0,0); fill-rule: nonzero; opacity: 1;" transform=" matrix(1 0 0 1 0 0) " stroke-linecap="round" />
	<path d="M 32.417 15.62 c -0.393 0 -0.765 -0.233 -0.924 -0.618 l -4.254 -10.27 c -0.211 -0.51 0.031 -1.095 0.541 -1.307 c 0.512 -0.211 1.095 0.031 1.307 0.541 l 4.254 10.27 c 0.211 0.51 -0.031 1.095 -0.541 1.307 C 32.673 15.595 32.544 15.62 32.417 15.62 z" style="stroke: none; stroke-width: 1; stroke-dasharray: none; stroke-linecap: butt; stroke-linejoin: miter; stroke-miterlimit: 10; fill: rgb(0,0,0); fill-rule: nonzero; opacity: 1;" transform=" matrix(1 0 0 1 0 0) " stroke-linecap="round" />
	<path d="M 61.838 86.65 c -0.392 0 -0.765 -0.232 -0.924 -0.617 l -4.254 -10.27 c -0.211 -0.511 0.031 -1.096 0.541 -1.307 c 0.509 -0.21 1.096 0.03 1.307 0.541 l 4.254 10.27 c 0.211 0.511 -0.031 1.096 -0.541 1.307 C 62.096 86.626 61.966 86.65 61.838 86.65 z" style="stroke: none; stroke-width: 1; stroke-dasharray: none; stroke-linecap: butt; stroke-linejoin: miter; stroke-miterlimit: 10; fill: rgb(0,0,0); fill-rule: nonzero; opacity: 1;" transform=" matrix(1 0 0 1 0 0) " stroke-linecap="round" />
	<path d="M 4.35 62.838 c -0.393 0 -0.765 -0.232 -0.924 -0.617 c -0.211 -0.511 0.031 -1.096 0.541 -1.307 l 10.27 -4.254 c 0.512 -0.213 1.095 0.031 1.307 0.541 c 0.211 0.511 -0.031 1.096 -0.541 1.307 l -10.27 4.254 C 4.606 62.813 4.477 62.838 4.35 62.838 z" style="stroke: none; stroke-width: 1; stroke-dasharray: none; stroke-linecap: butt; stroke-linejoin: miter; stroke-miterlimit: 10; fill: rgb(0,0,0); fill-rule: nonzero; opacity: 1;" transform=" matrix(1 0 0 1 0 0) " stroke-linecap="round" />
	<path d="M 75.381 33.417 c -0.392 0 -0.765 -0.233 -0.924 -0.618 c -0.211 -0.51 0.031 -1.095 0.541 -1.307 l 10.27 -4.254 c 0.509 -0.21 1.096 0.031 1.307 0.541 s -0.031 1.095 -0.541 1.307 l -10.27 4.254 C 75.639 33.392 75.509 33.417 75.381 33.417 z" style="stroke: none; stroke-width: 1; stroke-dasharray: none; stroke-linecap: butt; stroke-linejoin: miter; stroke-miterlimit: 10; fill: rgb(0,0,0); fill-rule: nonzero; opacity: 1;" transform=" matrix(1 0 0 1 0 0) " stroke-linecap="round" />
	<path d="M 57.584 15.62 c -0.128 0 -0.258 -0.025 -0.383 -0.077 c -0.51 -0.211 -0.752 -0.796 -0.541 -1.307 l 4.254 -10.27 c 0.211 -0.511 0.799 -0.75 1.307 -0.541 c 0.51 0.211 0.752 0.796 0.541 1.307 l -4.254 10.27 C 58.349 15.387 57.976 15.62 57.584 15.62 z" style="stroke: none; stroke-width: 1; stroke-dasharray: none; stroke-linecap: butt; stroke-linejoin: miter; stroke-miterlimit: 10; fill: rgb(0,0,0); fill-rule: nonzero; opacity: 1;" transform=" matrix(1 0 0 1 0 0) " stroke-linecap="round" />
	<path d="M 28.162 86.65 c -0.127 0 -0.257 -0.024 -0.382 -0.076 c -0.51 -0.211 -0.752 -0.796 -0.541 -1.307 l 4.254 -10.27 c 0.211 -0.51 0.793 -0.752 1.307 -0.541 c 0.51 0.211 0.752 0.796 0.541 1.307 l -4.254 10.27 C 28.926 86.418 28.554 86.65 28.162 86.65 z" style="stroke: none; stroke-width: 1; stroke-dasharray: none; stroke-linecap: butt; stroke-linejoin: miter; stroke-miterlimit: 10; fill: rgb(0,0,0); fill-rule: nonzero; opacity: 1;" transform=" matrix(1 0 0 1 0 0) " stroke-linecap="round" />
	<path d="M 14.619 33.417 c -0.127 0 -0.257 -0.025 -0.382 -0.077 l -10.27 -4.254 c -0.51 -0.211 -0.752 -0.796 -0.541 -1.307 c 0.211 -0.51 0.793 -0.753 1.307 -0.541 l 10.27 4.254 c 0.51 0.211 0.752 0.796 0.541 1.307 C 15.383 33.184 15.011 33.417 14.619 33.417 z" style="stroke: none; stroke-width: 1; stroke-dasharray: none; stroke-linecap: butt; stroke-linejoin: miter; stroke-miterlimit: 10; fill: rgb(0,0,0); fill-rule: nonzero; opacity: 1;" transform=" matrix(1 0 0 1 0 0) " stroke-linecap="round" />
	<path d="M 85.65 62.838 c -0.128 0 -0.258 -0.024 -0.383 -0.076 l -10.27 -4.254 c -0.51 -0.211 -0.752 -0.796 -0.541 -1.307 s 0.8 -0.751 1.307 -0.541 l 10.27 4.254 c 0.51 0.211 0.752 0.796 0.541 1.307 C 86.415 62.605 86.042 62.838 85.65 62.838 z" style="stroke: none; stroke-width: 1; stroke-dasharray: none; stroke-linecap: butt; stroke-linejoin: miter; stroke-miterlimit: 10; fill: rgb(0,0,0); fill-rule: nonzero; opacity: 1;" transform=" matrix(1 0 0 1 0 0) " stroke-linecap="round" />
	<path d="M 41.368 43.273 c 2.234 2.146 5.514 3.083 8.706 2.164 s 5.471 -3.457 6.222 -6.463 L 41.368 43.273 z" style="stroke: none; stroke-width: 1; stroke-dasharray: none; stroke-linecap: butt; stroke-linejoin: miter; stroke-miterlimit: 10; fill: rgb(255,255,255); fill-rule: nonzero; opacity: 1;" transform=" matrix(1 0 0 1 0 0) " stroke-linecap="round" />
	<path d="M 47.614 46.783 c -2.548 0 -5.053 -0.978 -6.939 -2.79 c -0.258 -0.248 -0.364 -0.614 -0.278 -0.961 s 0.351 -0.622 0.694 -0.721 l 14.928 -4.298 c 0.342 -0.1 0.713 -0.007 0.971 0.241 c 0.257 0.248 0.362 0.615 0.276 0.962 c -0.861 3.449 -3.511 6.201 -6.916 7.182 C 49.45 46.657 48.529 46.783 47.614 46.783 z M 43.557 43.683 c 1.866 1.093 4.127 1.401 6.24 0.793 c 2.114 -0.609 3.864 -2.073 4.863 -3.99 L 43.557 43.683 z" style="stroke: none; stroke-width: 1; stroke-dasharray: none; stroke-linecap: butt; stroke-linejoin: miter; stroke-miterlimit: 10; fill: rgb(0,0,0); fill-rule: nonzero; opacity: 1;" transform=" matrix(1 0 0 1 0 0) " stroke-linecap="round" />
	<path d="M 36.201 38.766 c -0.136 0 -0.274 -0.028 -0.406 -0.087 c -0.504 -0.225 -0.731 -0.815 -0.507 -1.32 c 0.646 -1.451 1.889 -2.534 3.411 -2.973 c 1.521 -0.439 3.151 -0.183 4.471 0.703 c 0.458 0.308 0.581 0.929 0.272 1.388 c -0.307 0.458 -0.928 0.582 -1.388 0.272 c -0.827 -0.555 -1.849 -0.715 -2.802 -0.441 c -0.954 0.275 -1.733 0.954 -2.138 1.864 C 36.95 38.544 36.584 38.765 36.201 38.766 z" style="stroke: none; stroke-width: 1; stroke-dasharray: none; stroke-linecap: butt; stroke-linejoin: miter; stroke-miterlimit: 10; fill: rgb(0,0,0); fill-rule: nonzero; opacity: 1;" transform=" matrix(1 0 0 1 0 0) " stroke-linecap="round" />
	<path d="M 51.03 34.495 c -0.136 0 -0.273 -0.028 -0.405 -0.087 c -0.505 -0.225 -0.731 -0.815 -0.508 -1.32 c 0.646 -1.451 1.89 -2.534 3.412 -2.973 c 1.521 -0.439 3.15 -0.182 4.47 0.703 c 0.458 0.308 0.58 0.929 0.272 1.388 c -0.307 0.457 -0.929 0.582 -1.388 0.272 c -0.825 -0.555 -1.847 -0.715 -2.802 -0.441 c -0.953 0.274 -1.732 0.954 -2.137 1.864 C 51.779 34.273 51.414 34.495 51.03 34.495 z" style="stroke: none; stroke-width: 1; stroke-dasharray: none; stroke-linecap: butt; stroke-linejoin: miter; stroke-miterlimit: 10; fill: rgb(0,0,0); fill-rule: nonzero; opacity: 1;" transform=" matrix(1 0 0 1 0 0) " stroke-linecap="round" />
	<circle cx="35.871" cy="44.821" r="3.451" style="stroke: none; stroke-width: 1; stroke-dasharray: none; stroke-linecap: butt; stroke-linejoin: miter; stroke-miterlimit: 10; fill: rgb(249,142,0); fill-rule: nonzero; opacity: 1;" transform="  matrix(1 0 0 1 0 0) "/>
	<circle cx="61.841" cy="36.471000000000004" r="3.451" style="stroke: none; stroke-width: 1; stroke-dasharray: none; stroke-linecap: butt; stroke-linejoin: miter; stroke-miterlimit: 10; fill: rgb(249,142,0); fill-rule: nonzero; opacity: 1;" transform="  matrix(1 0 0 1 0 0) "/>
</g>
</svg>